<mxfile host="Electron" modified="2023-11-26T05:27:58.858Z" agent="Mozilla/5.0 (X11; Linux x86_64) AppleWebKit/537.36 (KHTML, like Gecko) draw.io/22.1.2 Chrome/114.0.5735.289 Electron/25.9.4 Safari/537.36" etag="PMoJZ7K2E368A4HHOis7" version="22.1.2" type="device">
  <diagram name="ページ1" id="SPTA1iRNzqYjuaKKwID-">
    <mxGraphModel dx="714" dy="817" grid="1" gridSize="10" guides="1" tooltips="1" connect="1" arrows="1" fold="1" page="1" pageScale="1" pageWidth="827" pageHeight="1169" math="0" shadow="0">
      <root>
        <mxCell id="0" />
        <mxCell id="1" parent="0" />
      </root>
    </mxGraphModel>
  </diagram>
</mxfile>
